<svg xmlns="http://www.w3.org/2000/svg" width="24.677" height="63.564" viewBox="0 0 24.677 63.564">
  <g id="noun_Water_Bottle_2574358" data-name="noun_Water Bottle_2574358" transform="translate(-6.443 -1.936)">
    <g id="Grupo_54" data-name="Grupo 54">
      <path id="Trazado_125" data-name="Trazado 125" d="M31.12,28.881v1.227a1.076,1.076,0,0,1-1.075,1.075H7.518a1.076,1.076,0,0,1-1.075-1.075V28.881a1.076,1.076,0,0,1,1.075-1.075H30.045A1.076,1.076,0,0,1,31.12,28.881Zm-23.6-3.226A1.076,1.076,0,0,1,6.443,24.58V23.353a1.076,1.076,0,0,1,1.075-1.075H30.045a1.076,1.076,0,0,1,1.075,1.075V24.58a1.076,1.076,0,0,1-1.075,1.075H7.518Zm5.6-22.117a1.6,1.6,0,0,1,1.6-1.6H22.84a1.6,1.6,0,0,1,1.6,1.6V6.319H13.12ZM7.654,18.823a5.08,5.08,0,0,1,.969-3L13.942,8.47H23.62l5.319,7.358a5.08,5.08,0,0,1,.969,3l.02,1.072a.982.982,0,0,1-.717.233H8.353a2,2,0,0,1-.69-.149s-.007,0-.008,0ZM29.969,41.643v2.343a1.128,1.128,0,0,1-1.1,1.125H8.688A1.123,1.123,0,0,1,7.6,43.987V41.643a1.127,1.127,0,0,1,.888-1.119h20.53A1.137,1.137,0,0,1,29.969,41.643Zm.076,5.619a1.076,1.076,0,0,1,1.075,1.075v1.227a1.076,1.076,0,0,1-1.075,1.075H7.518a1.076,1.076,0,0,1-1.075-1.075V48.337a1.076,1.076,0,0,1,1.075-1.075C7.218,47.263,11.515,47.266,30.045,47.262ZM26.19,65.5H11.373c-4.586,0-4.833-4.857-4.889-4.965a1.876,1.876,0,0,1,1.845-2.217H29.234a1.871,1.871,0,0,1,1.443.676C31.854,60.408,30.467,65.5,26.19,65.5ZM7.518,56.167a1.076,1.076,0,0,1-1.075-1.075V53.865A1.076,1.076,0,0,1,7.518,52.79H30.045a1.076,1.076,0,0,1,1.075,1.075v1.227a1.076,1.076,0,0,1-1.075,1.075Zm20.031-17.8H10.015a6.914,6.914,0,0,0,0-5.028H27.548A6.914,6.914,0,0,0,27.548,38.362Z" fill="#fff"/>
    </g>
  </g>
</svg>
