<svg xmlns="http://www.w3.org/2000/svg" width="59.223" height="54.818" viewBox="0 0 59.223 54.818">
  <g id="noun_Electric_bus_1286087" data-name="noun_Electric bus_1286087" transform="translate(-4.583 -8.554)">
    <path id="Trazado_100" data-name="Trazado 100" d="M61.991,20.873h-.428V19.751A2.959,2.959,0,0,0,58.607,16.8H57.034V15.068A6.522,6.522,0,0,0,50.52,8.554h-32.8A6.521,6.521,0,0,0,11.2,15.068V16.8H9.63a2.959,2.959,0,0,0-2.956,2.955v1.121H6.4a1.817,1.817,0,0,0-1.815,1.815v7.786A1.818,1.818,0,0,0,6.4,32.29H8.332a1.818,1.818,0,0,0,1.816-1.816V22.688a1.818,1.818,0,0,0-1.816-1.815H8.057V19.751A1.574,1.574,0,0,1,9.63,18.179H11.2V55.828a3.457,3.457,0,0,0,2.847,3.4v2.285a1.865,1.865,0,0,0,1.863,1.863H20.59a1.865,1.865,0,0,0,1.863-1.863V59.286H45.937v2.223A1.865,1.865,0,0,0,47.8,63.372h4.679a1.865,1.865,0,0,0,1.863-1.863V59.195a3.459,3.459,0,0,0,2.693-3.366V18.179h1.574a1.574,1.574,0,0,1,1.572,1.572v1.121h-.122a1.818,1.818,0,0,0-1.815,1.816v7.785a1.818,1.818,0,0,0,1.815,1.816h1.933a1.818,1.818,0,0,0,1.815-1.816V22.689A1.818,1.818,0,0,0,61.991,20.873ZM20.159,13.551a1.266,1.266,0,0,1,1.262-1.262H47.428a1.266,1.266,0,0,1,1.262,1.262v1.978a1.266,1.266,0,0,1-1.262,1.262H21.421a1.266,1.266,0,0,1-1.262-1.262Zm1.3,40.152-6.4.032a.793.793,0,0,1-.8-.807l.051-2.911a.793.793,0,0,1,.927-.768l6.258,1.07a.793.793,0,0,1,.658.743l.089,1.808A.793.793,0,0,1,21.454,53.7Zm-5.16-7.545a2.955,2.955,0,0,1-2.035-2.666V22.04a2.882,2.882,0,0,1,2.862-2.862H51.269a2.882,2.882,0,0,1,2.862,2.862q0,10.726,0,21.452A2.955,2.955,0,0,1,52.1,46.158,67.8,67.8,0,0,1,16.294,46.158Zm29.854,6.713.089-1.808a.793.793,0,0,1,.659-.743l6.258-1.07a.793.793,0,0,1,.927.768l.051,2.911a.793.793,0,0,1-.8.807l-6.4-.032A.793.793,0,0,1,46.148,52.871Z" fill="#fff"/>
    <path id="Trazado_101" data-name="Trazado 101" d="M51.862,28.978,39.347,40.931a.457.457,0,0,0,.315.787h4.345L39.474,51.843a.457.457,0,0,0,.732.517L52.722,40.406a.457.457,0,0,0-.315-.787H48.061l4.533-10.125A.457.457,0,0,0,51.862,28.978Z" transform="translate(-11.839 -6.94)" fill="#fff"/>
  </g>
</svg>
