<svg xmlns="http://www.w3.org/2000/svg" width="193" height="7.183" viewBox="0 0 193 7.183">
  <g id="Grupo_103" data-name="Grupo 103" transform="translate(-121.241 -877.606)">
    <path id="Trazado_63" data-name="Trazado 63" d="M124.715,887.6a2.49,2.49,0,0,0-2.03.268l-.038.029.038-.017a2.815,2.815,0,0,0-1.115,1.05,2.466,2.466,0,0,0,.724,3.235,2.5,2.5,0,0,0,1.021.583,2.658,2.658,0,0,0,2.974-1.227,2.74,2.74,0,0,0-.206-2.965A2.607,2.607,0,0,0,124.715,887.6Z" transform="translate(0 -8.43)" fill="#929b30"/>
    <path id="Trazado_64" data-name="Trazado 64" d="M194.681,887.969a2.333,2.333,0,0,0-2.644-.189l-.172.119a2.579,2.579,0,0,0-1.219,2.155,2.463,2.463,0,0,0,4.835.663l.054-.211A2.45,2.45,0,0,0,194.681,887.969Z" transform="translate(-59.134 -8.389)" fill="#929b30"/>
    <path id="Trazado_65" data-name="Trazado 65" d="M264.136,889.2a2.4,2.4,0,0,0-2.828,1.489,1.749,1.749,0,0,0-.271,2.675,2.84,2.84,0,0,0,3.476.288,2.52,2.52,0,0,0,1.264-1.523A2.414,2.414,0,0,0,264.136,889.2Z" transform="translate(-118.675 -9.822)" fill="#929b30"/>
    <path id="Trazado_66" data-name="Trazado 66" d="M334.592,886a2.42,2.42,0,0,0-2.534,0l-.075.055a2.586,2.586,0,0,0-1.113,1.467,2.531,2.531,0,0,0,.244,1.891l.043.069a2.588,2.588,0,0,0,2.835,1.17,2.53,2.53,0,0,0,.775-.324,2.477,2.477,0,0,0,1.094-1.442,2.38,2.38,0,0,0-.24-1.859A3.72,3.72,0,0,0,334.592,886Z" transform="translate(-178.54 -6.845)" fill="#929b30"/>
    <path id="Trazado_67" data-name="Trazado 67" d="M405.618,887.731a2.586,2.586,0,0,0-1.852-.778l-.124.009a2.664,2.664,0,0,0-1.845,4.515,2.777,2.777,0,0,0,2.66.766,2.611,2.611,0,0,0,1.726-1.62h0c.015-.046.034-.089.046-.137,0-.011,0-.022.007-.034a2.292,2.292,0,0,0,.148-.842A2.7,2.7,0,0,0,405.618,887.731Z" transform="translate(-238.404 -7.961)" fill="#929b30"/>
    <path id="Trazado_68" data-name="Trazado 68" d="M471.24,884.109a2,2,0,0,0-1.813-.114,2.1,2.1,0,0,0-1.27,1.915,2.731,2.731,0,0,0,.711,1.793,2.281,2.281,0,0,0,4.02-.766,2.433,2.433,0,0,0-.585-2.247A2.184,2.184,0,0,0,471.24,884.109Z" transform="translate(-295.577 -5.303)" fill="#929b30"/>
    <path id="Trazado_69" data-name="Trazado 69" d="M543.787,881.055a2.377,2.377,0,0,0-.842-.853,2.276,2.276,0,0,0-2.088-.12,2.324,2.324,0,0,0-1.359,1.541,2.5,2.5,0,0,0,.6,2.315,2.525,2.525,0,0,0,1.319.792,2.713,2.713,0,0,0,1.183,0,2.208,2.208,0,0,0,1.156-.809,2.152,2.152,0,0,0,.438-1.067,2.208,2.208,0,0,0-.21-1.335A2.462,2.462,0,0,0,543.787,881.055Z" transform="translate(-356.29 -1.941)" fill="#929b30"/>
    <path id="Trazado_70" data-name="Trazado 70" d="M621.648,878.534a.73.73,0,0,1-.1-.091l0,0a3.282,3.282,0,0,0-.418-.326l-.058-.037a2.929,2.929,0,0,0-4.125.969,3.021,3.021,0,0,0,1.752,4.366,5.178,5.178,0,0,0,.977.141l.765-.1a2.16,2.16,0,0,0,.979-.522,2.784,2.784,0,0,0,1.031-1.516,3.047,3.047,0,0,0-.867-2.931Z" transform="translate(-422.012)" fill="#929b30"/>
    <path id="Trazado_71" data-name="Trazado 71" d="M698.529,879.084a2.07,2.07,0,1,0,2.041,2.069A2.079,2.079,0,0,0,698.529,879.084Z" transform="translate(-490.117 -1.26)" fill="#929b30"/>
    <path id="Trazado_72" data-name="Trazado 72" d="M763.322,879.922a2.381,2.381,0,1,0,2.349,2.381A2.392,2.392,0,0,0,763.322,879.922Z" transform="translate(-545.06 -1.974)" fill="#929b30"/>
    <path id="Trazado_73" data-name="Trazado 73" d="M834.61,880.28l-.115-.031a2.343,2.343,0,1,0,0,4.533l.115-.031a2.343,2.343,0,0,0,1.679-2.236A2.372,2.372,0,0,0,834.61,880.28Z" transform="translate(-605.202 -2.186)" fill="#929b30"/>
    <path id="Trazado_74" data-name="Trazado 74" d="M914.962,891.093a2.856,2.856,0,0,0-1.069-1.266.346.346,0,0,0-.088-.055,2.548,2.548,0,0,0-3.042.4,2.848,2.848,0,0,0-.708,1.24,2.6,2.6,0,0,0,.132,1.725,2.468,2.468,0,0,0,1.069,1.267,3,3,0,0,0,1.448.407,3.507,3.507,0,0,0,1.383-.368,2.228,2.228,0,0,0,1.121-1.739,2.291,2.291,0,0,0-.089-1.028A2.5,2.5,0,0,0,914.962,891.093Zm-.009.2a3.27,3.27,0,0,0-.344-.529l.272.356Zm.2.777c.005.046.012.093.018.139-.019.142-.038.284-.057.427A4.017,4.017,0,0,0,915.154,892.075Z" transform="translate(-672.002 -10.089)" fill="#929b30"/>
    <path id="Trazado_75" data-name="Trazado 75" d="M980.926,889.505a2.208,2.208,0,0,0-2.091-1.614,2.239,2.239,0,0,0-2.091,1.614l-.087.308a2.267,2.267,0,1,0,4.355,0Z" transform="translate(-728.757 -8.763)" fill="#929b30"/>
    <path id="Trazado_76" data-name="Trazado 76" d="M1048.306,892.38c-2.6,0-2.6,4.09,0,4.09S1050.907,892.38,1048.306,892.38Z" transform="translate(-788.212 -12.588)" fill="#929b30"/>
    <path id="Trazado_77" data-name="Trazado 77" d="M1101.884,893.97a2.381,2.381,0,1,0,2.349,2.38A2.392,2.392,0,0,0,1101.884,893.97Z" transform="translate(-833.519 -13.943)" fill="#929b30"/>
    <path id="Trazado_78" data-name="Trazado 78" d="M1161.8,893.551a2.547,2.547,0,0,0-1.953.805,2.268,2.268,0,0,0,.223,3.344,2.149,2.149,0,0,0,2.631.031,1.985,1.985,0,0,0,.632-.427,2.222,2.222,0,0,0,0-3.11A2.458,2.458,0,0,0,1161.8,893.551Zm.481,4.329-.051.007c.039-.008.074-.023.113-.033Z" transform="translate(-884.37 -13.578)" fill="#929b30"/>
    <path id="Trazado_79" data-name="Trazado 79" d="M1220.915,899.746a1.464,1.464,0,0,0-1.371,1.826c.021.1.043.209.065.314a1.36,1.36,0,0,0,2.613,0c.021-.1.043-.21.065-.314A1.462,1.462,0,0,0,1220.915,899.746Z" transform="translate(-935.74 -18.864)" fill="#929b30"/>
    <path id="Trazado_80" data-name="Trazado 80" d="M1272.465,894.056a2.546,2.546,0,0,0-.993-.07c-.055.008-.1.028-.154.039a2.865,2.865,0,0,0-.561.073,4.728,4.728,0,0,0-.642.269,1.75,1.75,0,0,0-.883,1.369,1.956,1.956,0,0,0,.509,1.575,2.274,2.274,0,0,0,.5.439,2.164,2.164,0,0,0,1.056.588,2.22,2.22,0,0,0,2.695-1.551A2.263,2.263,0,0,0,1272.465,894.056Zm-1.392.018.115-.015a4.43,4.43,0,0,0-.612.228Z" transform="translate(-978.089 -13.938)" fill="#929b30"/>
    <path id="Trazado_81" data-name="Trazado 81" d="M1329.363,889.295c-3.175,0-3.18,5,0,5S1332.544,889.295,1329.363,889.295Z" transform="translate(-1027.307 -9.96)" fill="#929b30"/>
    <path id="Trazado_82" data-name="Trazado 82" d="M1389.795,884.858a2.519,2.519,0,0,0-2.223-1.294,7.019,7.019,0,0,0-.909.12,5.654,5.654,0,0,0-.871.352,2.813,2.813,0,0,0-1.01.811,3.056,3.056,0,0,0-.745,1.577,2.66,2.66,0,0,0,.321,1.752,3.265,3.265,0,0,0,.972.986,2.7,2.7,0,0,0,2.088.277,4.194,4.194,0,0,0,1.631-.934,3.541,3.541,0,0,0,.747-1.014A2.717,2.717,0,0,0,1389.795,884.858Z" transform="translate(-1075.895 -5.069)" fill="#929b30"/>
  </g>
</svg>
