<svg xmlns="http://www.w3.org/2000/svg" width="64.962" height="70.054" viewBox="0 0 64.962 70.054">
  <g id="noun_solar_panel_2732638" data-name="noun_solar panel_2732638" transform="translate(-13.363 -3.062)">
    <g id="Layer_3" data-name="Layer 3" transform="translate(13.363 3.062)">
      <circle id="Elipse_1" data-name="Elipse 1" cx="6.614" cy="6.614" r="6.614" transform="translate(46.558 4.986)" fill="#fff"/>
      <path id="Trazado_103" data-name="Trazado 103" d="M123.376,23.692H122.26a.721.721,0,1,1,0-1.442h1.116a.721.721,0,0,1,0,1.442Z" transform="translate(-59.135 -11.181)" fill="#fff"/>
      <path id="Trazado_104" data-name="Trazado 104" d="M86.935,23.692H85.819a.721.721,0,0,1,0-1.442h1.116a.721.721,0,0,1,0,1.442Z" transform="translate(-43.716 -11.181)" fill="#fff"/>
      <path id="Trazado_105" data-name="Trazado 105" d="M105.007,5.622a.721.721,0,0,1-.721-.721V3.783a.721.721,0,0,1,1.442,0V4.9a.721.721,0,0,1-.721.723Z" transform="translate(-51.835 -3.062)" fill="#fff"/>
      <path id="Trazado_106" data-name="Trazado 106" d="M105.007,42.061a.721.721,0,0,1-.721-.721V40.224a.721.721,0,0,1,1.442,0V41.34a.721.721,0,0,1-.721.721Z" transform="translate(-51.835 -18.481)" fill="#fff"/>
      <path id="Trazado_107" data-name="Trazado 107" d="M92.453,10.692a.723.723,0,0,1-.519-.22l-.775-.8a.721.721,0,0,1,1.038-1l.775.8a.721.721,0,0,1-.519,1.222Z" transform="translate(-46.195 -5.34)" fill="#fff"/>
      <path id="Trazado_108" data-name="Trazado 108" d="M117.767,36.905a.718.718,0,0,1-.519-.22l-.775-.8a.722.722,0,0,1,1.038-1l.776.8a.721.721,0,0,1-.519,1.222Z" transform="translate(-56.906 -16.432)" fill="#fff"/>
      <path id="Trazado_109" data-name="Trazado 109" d="M116.991,10.692a.721.721,0,0,1-.519-1.222l.775-.8a.721.721,0,1,1,1.038,1l-.775.8A.721.721,0,0,1,116.991,10.692Z" transform="translate(-56.906 -5.34)" fill="#fff"/>
      <path id="Trazado_110" data-name="Trazado 110" d="M91.677,36.905a.721.721,0,0,1-.519-1.222l.775-.8a.722.722,0,1,1,1.038,1l-.776.8a.717.717,0,0,1-.519.22Z" transform="translate(-46.194 -16.432)" fill="#fff"/>
      <path id="Trazado_111" data-name="Trazado 111" d="M21.138,48.289a.549.549,0,0,0-.022.545L24.044,54.6H36.323l-3.34-6.576H21.619A.551.551,0,0,0,21.138,48.289Z" transform="translate(-16.618 -22.088)" fill="#fff"/>
      <path id="Trazado_112" data-name="Trazado 112" d="M68.407,69.424l-3.807-7.5h-13l3.807,7.5Z" transform="translate(-29.541 -27.969)" fill="#fff"/>
      <path id="Trazado_113" data-name="Trazado 113" d="M84.141,54.6l-3.187-6.273a.555.555,0,0,0-.5-.306H69.882l3.34,6.576Z" transform="translate(-37.278 -22.085)" fill="#fff"/>
      <path id="Trazado_114" data-name="Trazado 114" d="M60.88,54.6l-3.34-6.579h-13l3.34,6.579Z" transform="translate(-26.554 -22.085)" fill="#fff"/>
      <path id="Trazado_115" data-name="Trazado 115" d="M80.749,69.424H91.666l-3.807-7.5H76.942Z" transform="translate(-40.265 -27.969)" fill="#fff"/>
      <path id="Trazado_116" data-name="Trazado 116" d="M27.511,61.925l3.807,7.5H43.594l-3.807-7.5Z" transform="translate(-19.35 -27.969)" fill="#fff"/>
      <path id="Trazado_117" data-name="Trazado 117" d="M71.481,72.568q-.058-.119-.132-.264a.692.692,0,0,0-1.178-.106h0a2.2,2.2,0,0,1-1.766.888H30.326a1.992,1.992,0,0,1-1.784-1.1L16.578,48.427a1.5,1.5,0,0,1,.3-2.178.421.421,0,0,0-.288-.729H15.456a2.072,2.072,0,0,0-1.767.99,2.142,2.142,0,0,0-.1,2.092l12.8,25.88a2.077,2.077,0,0,0,1.867,1.17H42.415V88.245H39.306a2.836,2.836,0,0,0-2.836,2.836H51.66a2.836,2.836,0,0,0-2.836-2.836h-3.14V75.653H69.615a2.077,2.077,0,0,0,1.771-1,2.134,2.134,0,0,0,.1-2.089Z" transform="translate(-13.363 -21.028)" fill="#fff"/>
      <path id="Trazado_118" data-name="Trazado 118" d="M88.727,85.144H98.736a.558.558,0,0,0,.5-.812l-3.506-6.907H84.811Z" transform="translate(-43.595 -34.527)" fill="#fff"/>
      <path id="Trazado_119" data-name="Trazado 119" d="M76.387,85.144l-3.918-7.719h-13l3.918,7.719Z" transform="translate(-32.87 -34.527)" fill="#fff"/>
      <path id="Trazado_120" data-name="Trazado 120" d="M39.641,85.144H51.575l-3.918-7.719H35.38l3.761,7.413a.556.556,0,0,0,.5.306Z" transform="translate(-22.679 -34.527)" fill="#fff"/>
    </g>
  </g>
</svg>
