<svg xmlns="http://www.w3.org/2000/svg" width="27.065" height="27.018" viewBox="0 0 27.065 27.018">
  <g id="noun_podcast_3953342" transform="translate(-1.975 -2)">
    <path id="Trazado_83" data-name="Trazado 83" d="M16.473,19.233v8.819a.965.965,0,0,1-1.93,0V19.233a3.86,3.86,0,1,1,1.93,0ZM8.754,15.509a6.754,6.754,0,1,1,9.649,6.1v2.084a8.684,8.684,0,1,0-5.789,0V21.607a6.754,6.754,0,0,1-3.86-6.1ZM15.508,2a13.509,13.509,0,0,0-2.895,26.709V26.721a11.579,11.579,0,1,1,5.789,0v1.988A13.509,13.509,0,0,0,15.508,2Z" transform="translate(0 0)" fill="#929b30"/>
  </g>
</svg>
