<svg xmlns="http://www.w3.org/2000/svg" width="44" height="56" viewBox="0 0 44 56">
  <g id="noun_tire_3779413" transform="translate(-286 49)">
    <g id="Grupo_53" data-name="Grupo 53" transform="translate(276 -53)">
      <path id="Trazado_102" data-name="Trazado 102" d="M22,32c0,8.717-1.232,13.728-2,14.847-.768-1.119-2-6.13-2-14.847s1.232-13.728,2-14.847C20.768,18.272,22,23.283,22,32Zm8,0c0,13.574-3.5,28-10,28S10,45.574,10,32,13.5,4,20,4,30,18.426,30,32Zm-6,0c0-2.839-.192-17-4-17s-4,14.161-4,17,.192,17,4,17S24,34.839,24,32ZM48.553,21.895,45,20.118l-3.553,1.776a1,1,0,0,1-.895,0L37,20.118l-3.553,1.776a1,1,0,0,1-.895,0l-1.262-.631c.27,1.972.46,4,.575,6.051L33,27.882l3.553-1.776a1,1,0,0,1,.895,0L41,27.882l3.553-1.776a1,1,0,0,1,.895,0L49,27.882l3.553-1.776a1,1,0,0,1,.895,0l.345.172c-.15-2.087-.383-4.142-.695-6.111l-.1-.048-3.553,1.776A1,1,0,0,1,48.553,21.895Zm.895,16a1,1,0,0,1-.895,0L45,36.118l-3.553,1.776a1,1,0,0,1-.895,0L37,36.118l-3.553,1.776a1,1,0,0,1-.895,0l-.737-.368c-.124,1.856-.312,3.694-.565,5.481L33,43.882l3.553-1.776a1,1,0,0,1,.895,0L41,43.882l3.553-1.776a1,1,0,0,1,.895,0L49,43.882l3.553-1.776a.99.99,0,0,1,.8-.022c.237-1.8.407-3.658.514-5.531L53,36.118Zm4.477-9.314L53,28.118l-3.553,1.776a1,1,0,0,1-.895,0L45,28.118l-3.553,1.776a1,1,0,0,1-.895,0L37,28.118l-3.553,1.776a1,1,0,0,1-.895,0l-.589-.295Q32,30.8,32,32c0,1.112-.025,2.23-.07,3.347l1.07.535,3.553-1.776a1,1,0,0,1,.895,0L41,35.882l3.553-1.776a1,1,0,0,1,.895,0L49,35.882l3.553-1.776a1,1,0,0,1,.895,0l.516.258Q54,33.18,54,32c0-1.137-.027-2.28-.076-3.42ZM28.553,10.106a1,1,0,0,1,.895,0L33,11.882l3.553-1.776a1,1,0,0,1,.895,0L41,11.882l3.553-1.776a1,1,0,0,1,.895,0L49,11.882,50.763,11C49.109,6.76,46.841,4,44,4H24.707a17.01,17.01,0,0,1,3.831,6.112Zm20,3.789L45,12.118l-3.553,1.776a1,1,0,0,1-.895,0L37,12.118l-3.553,1.776a1,1,0,0,1-.895,0l-3.232-1.616a49.031,49.031,0,0,1,1.59,6.559L33,19.882l3.553-1.776a1,1,0,0,1,.895,0L41,19.882l3.553-1.776a1,1,0,0,1,.895,0L49,19.882l3.553-1.776a.963.963,0,0,1,.174-.041A46.3,46.3,0,0,0,51.433,12.9l-1.986.993a1,1,0,0,1-.895,0Zm0,40L45,52.118l-3.553,1.776a1,1,0,0,1-.895,0L37,52.118l-3.553,1.776a1,1,0,0,1-.895,0L29.164,52.2A19.034,19.034,0,0,1,24.707,60H44c2.772,0,5-2.634,6.641-6.7l-1.193.6a1,1,0,0,1-.895,0Zm.895-8a1,1,0,0,1-.895,0L45,44.118l-3.553,1.776a1,1,0,0,1-.895,0L37,44.118l-3.553,1.776a1,1,0,0,1-.895,0l-1.628-.814a52.265,52.265,0,0,1-1.16,5.183L33,51.882l3.553-1.776a1,1,0,0,1,.895,0L41,51.882l3.553-1.776a1,1,0,0,1,.895,0L49,51.882l2.588-1.294a50.609,50.609,0,0,0,1.46-6.446L53,44.118Z" fill="#fff"/>
    </g>
  </g>
</svg>
