<svg xmlns="http://www.w3.org/2000/svg" width="316.981" height="68.916" viewBox="0 0 316.981 68.916">
  <g id="Grupo_101" data-name="Grupo 101" transform="translate(-256.628 -23)">
    <g id="Grupo_39" data-name="Grupo 39" transform="translate(256.628 23)">
      <g id="Grupo_33" data-name="Grupo 33" transform="translate(0 20.613)">
        <path id="Trazado_21" data-name="Trazado 21" d="M-238.309-512.062a5.772,5.772,0,0,1-1.933-1.2,5.433,5.433,0,0,1-1.31-2,7.424,7.424,0,0,1-.479-2.73,7.676,7.676,0,0,1,.479-2.772,5.727,5.727,0,0,1,1.323-2.073,5.863,5.863,0,0,1,1.988-1.276,6.742,6.742,0,0,1,2.484-.449,7.9,7.9,0,0,1,2.077.254,7.879,7.879,0,0,1,1.4.585,1.467,1.467,0,0,1,.432.424,1.191,1.191,0,0,1,.195.492,1.656,1.656,0,0,1-.008.5.979.979,0,0,1-.191.445,1.488,1.488,0,0,1-.344.322.821.821,0,0,1-.47.132,1.541,1.541,0,0,1-.572-.119,5.945,5.945,0,0,0-2.34-.56,5.734,5.734,0,0,0-1,.076,2.731,2.731,0,0,0-.869.327,2.031,2.031,0,0,0-.716.678,3.856,3.856,0,0,0-.454,1.17,7.635,7.635,0,0,0-.178,1.759,4.777,4.777,0,0,0,.78,2.954,2.75,2.75,0,0,0,2.323,1.013,5.661,5.661,0,0,0,1.442-.212,6.16,6.16,0,0,0,1.433-.568.733.733,0,0,1,.771.034,1.052,1.052,0,0,1,.509.772,1.318,1.318,0,0,1-.594,1.289,6.094,6.094,0,0,1-3.815,1.162A6.591,6.591,0,0,1-238.309-512.062Z" transform="translate(242.031 524.572)" fill="#fff"/>
        <path id="Trazado_22" data-name="Trazado 22" d="M-172.047-511.326a1.825,1.825,0,0,1-.453-1.246v-8.809a1.841,1.841,0,0,1,.453-1.251,1.413,1.413,0,0,1,1.107-.521,1.417,1.417,0,0,1,1.1.521,1.833,1.833,0,0,1,.458,1.251v8.809a1.817,1.817,0,0,1-.458,1.246,1.431,1.431,0,0,1-1.111.517A1.41,1.41,0,0,1-172.047-511.326Z" transform="translate(185.384 523.417)" fill="#fff"/>
      </g>
      <path id="Trazado_23" data-name="Trazado 23" d="M13.739-512.062a5.773,5.773,0,0,1-1.933-1.2,5.433,5.433,0,0,1-1.31-2,7.414,7.414,0,0,1-.479-2.73,7.665,7.665,0,0,1,.479-2.772,5.734,5.734,0,0,1,1.323-2.073,5.875,5.875,0,0,1,1.988-1.276,6.737,6.737,0,0,1,2.484-.449,7.9,7.9,0,0,1,2.077.254,7.883,7.883,0,0,1,1.4.585,1.474,1.474,0,0,1,.432.424,1.2,1.2,0,0,1,.195.492,1.644,1.644,0,0,1-.009.5.972.972,0,0,1-.19.445,1.5,1.5,0,0,1-.344.322.822.822,0,0,1-.47.132,1.536,1.536,0,0,1-.572-.119,5.949,5.949,0,0,0-2.34-.56,5.737,5.737,0,0,0-1,.076,2.727,2.727,0,0,0-.869.327,2.034,2.034,0,0,0-.717.678,3.842,3.842,0,0,0-.453,1.17,7.621,7.621,0,0,0-.178,1.759,4.773,4.773,0,0,0,.78,2.954,2.75,2.75,0,0,0,2.323,1.013,5.656,5.656,0,0,0,1.441-.212,6.147,6.147,0,0,0,1.433-.568.734.734,0,0,1,.772.034,1.053,1.053,0,0,1,.508.772,1.317,1.317,0,0,1-.594,1.289,6.092,6.092,0,0,1-3.815,1.162A6.591,6.591,0,0,1,13.739-512.062Z" transform="translate(36.689 545.185)" fill="#fff"/>
      <path id="Trazado_24" data-name="Trazado 24" d="M78.991-510.692a5.11,5.11,0,0,1-1.674-.822,3.608,3.608,0,0,1-1.111-1.4,4.683,4.683,0,0,1-.395-1.971v-6.41a1.825,1.825,0,0,1,.454-1.246,1.417,1.417,0,0,1,1.106-.517,1.434,1.434,0,0,1,1.106.517,1.805,1.805,0,0,1,.462,1.246v6.359a2.13,2.13,0,0,0,.64,1.675,2.206,2.206,0,0,0,1.522.572,2.233,2.233,0,0,0,1.535-.572,2.123,2.123,0,0,0,.645-1.675V-521.3a1.815,1.815,0,0,1,.458-1.246,1.422,1.422,0,0,1,1.1-.517,1.435,1.435,0,0,1,1.106.517,1.807,1.807,0,0,1,.462,1.246v6.41a4.306,4.306,0,0,1-.691,2.471,4.114,4.114,0,0,1-1.87,1.514,7.093,7.093,0,0,1-2.747.492A7.509,7.509,0,0,1,78.991-510.692Z" transform="translate(-16.914 543.954)" fill="#fff"/>
      <path id="Trazado_25" data-name="Trazado 25" d="M146.855-511.2a2.041,2.041,0,0,1-.5-.933,5.231,5.231,0,0,1-.131-1.229v-8.029a1.816,1.816,0,0,1,.458-1.246,1.421,1.421,0,0,1,1.1-.517,1.431,1.431,0,0,1,1.111.517,1.814,1.814,0,0,1,.458,1.246l.009,8.233h4.247a1.059,1.059,0,0,1,.793.339,1.152,1.152,0,0,1,.327.831,1.167,1.167,0,0,1-.327.835,1.053,1.053,0,0,1-.793.343H147.8A1.23,1.23,0,0,1,146.855-511.2Z" transform="translate(-74.282 544.029)" fill="#fff"/>
      <path id="Trazado_26" data-name="Trazado 26" d="M204.712-514.362h-4.985l-.559,1.594a1.815,1.815,0,0,1-.606.9,1.208,1.208,0,0,1-.827.284,1.78,1.78,0,0,1-.793-.254,1.087,1.087,0,0,1-.5-.721,2.092,2.092,0,0,1,.068-1.106l3.095-8a6.153,6.153,0,0,1,.543-1.208,2.6,2.6,0,0,1,.636-.742,2.122,2.122,0,0,1,.674-.352,2.716,2.716,0,0,1,.758-.1,2.719,2.719,0,0,1,.759.1,2.129,2.129,0,0,1,.674.352,2.621,2.621,0,0,1,.636.742,6.22,6.22,0,0,1,.543,1.208l3.094,8a2.1,2.1,0,0,1,.068,1.106,1.089,1.089,0,0,1-.5.721,1.785,1.785,0,0,1-.793.254,1.206,1.206,0,0,1-.826-.284,1.809,1.809,0,0,1-.606-.9Zm-2.493-7.071-1.865,5.3h3.731Z" transform="translate(-115.156 544.776)" fill="#fff"/>
      <g id="Grupo_37" data-name="Grupo 37" transform="translate(19.539 20.58)">
        <g id="Grupo_36" data-name="Grupo 36">
          <g id="Grupo_35" data-name="Grupo 35">
            <g id="Grupo_34" data-name="Grupo 34">
              <path id="Trazado_27" data-name="Trazado 27" d="M-135.595-498.052a4.081,4.081,0,0,1-.991-2.907v-20.074a3.28,3.28,0,0,1,1.23-2.774,4.939,4.939,0,0,1,3.1-.944h7.664a30.072,30.072,0,0,1,3.288.162,15.047,15.047,0,0,1,2.9.62,7.486,7.486,0,0,1,2.392,1.211,5.479,5.479,0,0,1,1.544,2.011,6.891,6.891,0,0,1,.591,2.955q0,5.453-6.138,6.52v.077a10.408,10.408,0,0,1,2.516.543,3.9,3.9,0,0,1,1.611,1.125,4.977,4.977,0,0,1,.953,1.773,15.3,15.3,0,0,1,.505,2.659l.362,2.535a7.332,7.332,0,0,1-.429,4.251,2.918,2.918,0,0,1-2.774,1.315,3.11,3.11,0,0,1-2.593-1.106,6.607,6.607,0,0,1-1.067-3.565l-.286-2.5a5,5,0,0,0-1.192-3.145,4.475,4.475,0,0,0-3.231-.972h-3.908v7.321a4.058,4.058,0,0,1-.991,2.945,3.383,3.383,0,0,1-2.536,1.02A3.3,3.3,0,0,1-135.595-498.052Zm9.017-14.765a13.551,13.551,0,0,0,2.087-.143,8.083,8.083,0,0,0,1.811-.515,2.926,2.926,0,0,0,1.4-1.153,3.565,3.565,0,0,0,.5-1.945,4.8,4.8,0,0,0-.181-1.382,3.577,3.577,0,0,0-.458-1,2.367,2.367,0,0,0-.762-.686,4.758,4.758,0,0,0-.925-.429,5.778,5.778,0,0,0-1.134-.219q-.7-.076-1.191-.1t-1.3-.019h-2.936v7.587Z" transform="translate(136.586 524.751)" fill="#fff"/>
            </g>
          </g>
        </g>
      </g>
      <path id="Trazado_28" data-name="Trazado 28" d="M282.515-516.383a4.425,4.425,0,0,0-3.374-1.208,4.433,4.433,0,0,0-3.38,1.208,5.089,5.089,0,0,0-1.141,3.617,5.079,5.079,0,0,0,1.141,3.611,4.434,4.434,0,0,0,3.38,1.208,4.426,4.426,0,0,0,3.374-1.208,5.081,5.081,0,0,0,1.141-3.611A5.091,5.091,0,0,0,282.515-516.383Zm-5.085,5.253a.2.2,0,0,1-.1.083,1.675,1.675,0,0,1-.556.065.743.743,0,0,1-.557-.219,1.017,1.017,0,0,1-.2-.7v-1.022h-.147a.276.276,0,0,1-.2-.065.287.287,0,0,1-.066-.212.225.225,0,0,1,.257-.253h.207l.053-.469q.043-.445.366-.445.3,0,.3.486v.428h.294q.252,0,.253.269a.264.264,0,0,1-.065.2.279.279,0,0,1-.2.064h-.279v.856a.884.884,0,0,0,.072.427.269.269,0,0,0,.265.107l.14-.007a.176.176,0,0,1,.119.04.209.209,0,0,1,.07.107.44.44,0,0,1,.015.135A.251.251,0,0,1,277.43-511.131Zm2.8-.3a.456.456,0,0,1-.094.316.38.38,0,0,1-.294.1q-.375,0-.375-.423v-.029a.768.768,0,0,1-.3.363.933.933,0,0,1-.5.118.825.825,0,0,1-.61-.249.927.927,0,0,1-.246-.682v-1.005a.649.649,0,0,1,.1-.385.349.349,0,0,1,.3-.13.314.314,0,0,1,.281.129.7.7,0,0,1,.087.386v.994a.457.457,0,0,0,.11.327.369.369,0,0,0,.28.115.459.459,0,0,0,.35-.154.546.546,0,0,0,.143-.387v-.895a.65.65,0,0,1,.1-.385.349.349,0,0,1,.3-.13.314.314,0,0,1,.281.129.693.693,0,0,1,.087.386Zm2.047.375a1.458,1.458,0,0,1-.551.07,1.668,1.668,0,0,1-.914-.291.226.226,0,0,1-.087-.12.221.221,0,0,1,0-.138.313.313,0,0,1,.071-.119.188.188,0,0,1,.125-.06.307.307,0,0,1,.165.036c.011,0,.042.021.091.047s.091.048.127.065a.977.977,0,0,0,.155.052,1,1,0,0,0,.209.031.7.7,0,0,0,.161,0,1.032,1.032,0,0,0,.161-.028.264.264,0,0,0,.125-.071.181.181,0,0,0,.05-.131.161.161,0,0,0-.074-.121.556.556,0,0,0-.212-.093l-.332-.089q-.187-.053-.3-.093a1.655,1.655,0,0,1-.228-.1.572.572,0,0,1-.176-.135.593.593,0,0,1-.1-.18.762.762,0,0,1-.037-.252.608.608,0,0,1,.3-.543,1.338,1.338,0,0,1,.811-.161,1.606,1.606,0,0,1,.278.037,1.617,1.617,0,0,1,.2.057c.046.018.106.043.178.077a.274.274,0,0,1,.126.111.227.227,0,0,1,.035.14.308.308,0,0,1-.044.13.17.17,0,0,1-.113.078.315.315,0,0,1-.17-.015,2.055,2.055,0,0,0-.488-.115c-.058,0-.119,0-.184,0a.4.4,0,0,0-.177.047.131.131,0,0,0-.079.116.16.16,0,0,0,.064.135.578.578,0,0,0,.211.082l.329.082a3.019,3.019,0,0,1,.338.107,1.039,1.039,0,0,1,.246.139.531.531,0,0,1,.166.206.712.712,0,0,1,.058.287.712.712,0,0,1-.137.455A.8.8,0,0,1,282.281-511.057Z" transform="translate(-178.882 539.497)" fill="#fff"/>
      <path id="Trazado_29" data-name="Trazado 29" d="M-58.017-358.218a1.327,1.327,0,0,0-1.078.562,30.2,30.2,0,0,1-24.588,12.674,30.2,30.2,0,0,1-24.589-12.674,1.327,1.327,0,0,0-1.077-.562H-111.3a1.319,1.319,0,0,0-1.1,2.044,34.452,34.452,0,0,0,28.716,15.433,34.452,34.452,0,0,0,28.716-15.433,1.319,1.319,0,0,0-1.1-2.044Z" transform="translate(136.6 409.657)" fill="#fff"/>
      <path id="Trazado_30" data-name="Trazado 30" d="M-76.672-635.809a34.29,34.29,0,0,0-22.017,7.977,1.311,1.311,0,0,1-1.648.019h0l-.6-.468a1.317,1.317,0,0,0-2.12.863l-.949,7.162a1.317,1.317,0,0,0,1.75,1.414l6.918-2.476a1.318,1.318,0,0,0,.37-2.277l-.893-.7-2.737-2.149,1.677,1.316a1.31,1.31,0,0,0,1.617.006,30.062,30.062,0,0,1,18.629-6.445,30.2,30.2,0,0,1,24.681,12.8,1.327,1.327,0,0,0,1.081.567h1.939a1.319,1.319,0,0,0,1.106-2.039A34.453,34.453,0,0,0-76.672-635.809Z" transform="translate(129.589 635.809)" fill="#fff"/>
      <g id="Grupo_38" data-name="Grupo 38" transform="translate(46.755 35.596)">
        <path id="Trazado_31" data-name="Trazado 31" d="M11.083-430.162a1.3,1.3,0,0,1-.473-.515,2.791,2.791,0,0,1-.249-.688,3.547,3.547,0,0,1-.08-.768V-439.8q0-.481.034-.811a2.846,2.846,0,0,1,.152-.663,1.377,1.377,0,0,1,.325-.536,1.478,1.478,0,0,1,.566-.325,2.69,2.69,0,0,1,.865-.122h5.437a1.147,1.147,0,0,1,.832.334,1.094,1.094,0,0,1,.342.814,1.067,1.067,0,0,1-.342.807,1.163,1.163,0,0,1-.832.325H13.3v2.625H17.28a1.146,1.146,0,0,1,.831.334,1.093,1.093,0,0,1,.342.814,1.066,1.066,0,0,1-.342.806,1.163,1.163,0,0,1-.831.325H13.3v2.828H17.87a1.03,1.03,0,0,1,.772.329,1.124,1.124,0,0,1,.316.81,1.11,1.11,0,0,1-.316.806,1.035,1.035,0,0,1-.772.325H11.792A1.31,1.31,0,0,1,11.083-430.162Z" transform="translate(-10.281 442.525)" fill="#fff"/>
        <path id="Trazado_32" data-name="Trazado 32" d="M68.7-431.257a5.76,5.76,0,0,1-1.925-1.2,5.415,5.415,0,0,1-1.3-2,7.384,7.384,0,0,1-.477-2.718,7.636,7.636,0,0,1,.477-2.761,5.7,5.7,0,0,1,1.317-2.064,5.835,5.835,0,0,1,1.98-1.27,6.709,6.709,0,0,1,2.473-.448,7.861,7.861,0,0,1,2.069.253,7.866,7.866,0,0,1,1.393.582,1.475,1.475,0,0,1,.43.422,1.192,1.192,0,0,1,.194.489,1.649,1.649,0,0,1-.009.5.973.973,0,0,1-.19.443,1.484,1.484,0,0,1-.342.321.819.819,0,0,1-.469.131,1.517,1.517,0,0,1-.57-.118,5.93,5.93,0,0,0-2.33-.557,5.717,5.717,0,0,0-.992.076,2.724,2.724,0,0,0-.866.325,2.021,2.021,0,0,0-.713.675,3.831,3.831,0,0,0-.452,1.165,7.577,7.577,0,0,0-.177,1.752,4.756,4.756,0,0,0,.776,2.942,2.738,2.738,0,0,0,2.313,1.009,5.648,5.648,0,0,0,1.435-.211,6.132,6.132,0,0,0,1.427-.566.73.73,0,0,1,.768.034,1.045,1.045,0,0,1,.506.768A1.312,1.312,0,0,1,74.854-432a6.07,6.07,0,0,1-3.8,1.156A6.553,6.553,0,0,1,68.7-431.257Z" transform="translate(-54.855 443.713)" fill="#fff"/>
        <path id="Trazado_33" data-name="Trazado 33" d="M133.671-429.893a5.1,5.1,0,0,1-1.667-.819,3.594,3.594,0,0,1-1.106-1.4,4.666,4.666,0,0,1-.393-1.962v-6.382a1.818,1.818,0,0,1,.452-1.241,1.412,1.412,0,0,1,1.1-.515,1.429,1.429,0,0,1,1.1.515,1.8,1.8,0,0,1,.46,1.241v6.332a2.121,2.121,0,0,0,.638,1.667,2.2,2.2,0,0,0,1.515.57,2.223,2.223,0,0,0,1.528-.57,2.112,2.112,0,0,0,.642-1.667v-6.332a1.809,1.809,0,0,1,.456-1.241,1.417,1.417,0,0,1,1.1-.515,1.429,1.429,0,0,1,1.1.515,1.8,1.8,0,0,1,.46,1.241v6.382a4.288,4.288,0,0,1-.688,2.46,4.1,4.1,0,0,1-1.861,1.507,7.074,7.074,0,0,1-2.735.489A7.475,7.475,0,0,1,133.671-429.893Z" transform="translate(-108.227 442.488)" fill="#fff"/>
        <path id="Trazado_34" data-name="Trazado 34" d="M201.06-430.476a1.807,1.807,0,0,1-.439-1.287v-8.89a1.452,1.452,0,0,1,.544-1.228,2.186,2.186,0,0,1,1.372-.418h3.393a13.3,13.3,0,0,1,1.456.072,6.661,6.661,0,0,1,1.283.274,3.319,3.319,0,0,1,1.06.536,2.424,2.424,0,0,1,.684.891,3.053,3.053,0,0,1,.262,1.309q0,2.414-2.718,2.887v.033a4.628,4.628,0,0,1,1.114.241,1.726,1.726,0,0,1,.713.5,2.2,2.2,0,0,1,.422.785,6.757,6.757,0,0,1,.224,1.177l.161,1.123a3.251,3.251,0,0,1-.19,1.883,1.291,1.291,0,0,1-1.228.583,1.376,1.376,0,0,1-1.148-.49,2.93,2.93,0,0,1-.473-1.579l-.127-1.106a2.213,2.213,0,0,0-.527-1.393,1.982,1.982,0,0,0-1.431-.43h-1.731v3.242a1.8,1.8,0,0,1-.439,1.3,1.5,1.5,0,0,1-1.123.452A1.461,1.461,0,0,1,201.06-430.476Zm3.993-6.538a6,6,0,0,0,.925-.063,3.585,3.585,0,0,0,.8-.228,1.291,1.291,0,0,0,.62-.511,1.578,1.578,0,0,0,.22-.861,2.124,2.124,0,0,0-.08-.612,1.6,1.6,0,0,0-.2-.443,1.051,1.051,0,0,0-.338-.3,2.1,2.1,0,0,0-.41-.19,2.564,2.564,0,0,0-.5-.1q-.308-.034-.528-.042t-.574-.009h-1.3v3.36Z" transform="translate(-165.35 442.561)" fill="#fff"/>
        <path id="Trazado_35" data-name="Trazado 35" d="M264.536-431.742a1.007,1.007,0,0,1-.372-.435,1.023,1.023,0,0,1-.089-.536,1.671,1.671,0,0,1,.152-.531,1,1,0,0,1,.355-.418,1.188,1.188,0,0,1,.515-.195,1.073,1.073,0,0,1,.629.139,7.213,7.213,0,0,0,2.845.608,3.144,3.144,0,0,0,1.532-.329,1.075,1.075,0,0,0,.595-1q0-.886-1.3-1.317l-2.8-.929a5.745,5.745,0,0,1-2.228-1.3,2.8,2.8,0,0,1-.65-1.962,3.25,3.25,0,0,1,1.359-2.736,5.976,5.976,0,0,1,3.672-1.021,9.408,9.408,0,0,1,2.25.283,3.9,3.9,0,0,1,1.752.84,1.088,1.088,0,0,1,.321.574,1.068,1.068,0,0,1-.034.6,1.709,1.709,0,0,1-.291.5.79.79,0,0,1-.452.283.864.864,0,0,1-.523-.055,6.211,6.211,0,0,0-1.406-.595,5.974,5.974,0,0,0-1.5-.165,4.274,4.274,0,0,0-1.056.122,1.885,1.885,0,0,0-.81.418.93.93,0,0,0-.329.717,1.016,1.016,0,0,0,.452.866,5.146,5.146,0,0,0,1.33.62,2.982,2.982,0,0,0,.646.127,3.177,3.177,0,0,1,.655.127q.777.236,1.33.456a7.311,7.311,0,0,1,1.076.536,3.409,3.409,0,0,1,.84.688,2.887,2.887,0,0,1,.506.891,3.386,3.386,0,0,1,.19,1.169,3.379,3.379,0,0,1-1.359,2.832,5.9,5.9,0,0,1-3.681,1.043A7.9,7.9,0,0,1,264.536-431.742Z" transform="translate(-216.754 443.713)" fill="#fff"/>
        <path id="Trazado_36" data-name="Trazado 36" d="M326.7-432.451a6.78,6.78,0,0,1-1.524-4.821A6.793,6.793,0,0,1,326.7-442.1a5.919,5.919,0,0,1,4.512-1.613,5.909,5.909,0,0,1,4.5,1.613,6.8,6.8,0,0,1,1.524,4.829,6.783,6.783,0,0,1-1.524,4.821,5.909,5.909,0,0,1-4.5,1.612A5.919,5.919,0,0,1,326.7-432.451Zm6.652-1.6a6.009,6.009,0,0,0,.637-3.225,6.051,6.051,0,0,0-.637-3.242,2.4,2.4,0,0,0-2.14-.937,2.845,2.845,0,0,0-1.6.4,2.347,2.347,0,0,0-.883,1.309,8.526,8.526,0,0,0-.286,2.473,6.006,6.006,0,0,0,.637,3.225,2.39,2.39,0,0,0,2.132.937A2.4,2.4,0,0,0,333.351-434.047Z" transform="translate(-266.823 443.713)" fill="#fff"/>
        <path id="Trazado_37" data-name="Trazado 37" d="M399.705-431.742a1.007,1.007,0,0,1-.371-.435,1.021,1.021,0,0,1-.088-.536,1.662,1.662,0,0,1,.152-.531,1,1,0,0,1,.354-.418,1.189,1.189,0,0,1,.515-.195,1.073,1.073,0,0,1,.629.139,7.214,7.214,0,0,0,2.845.608,3.145,3.145,0,0,0,1.532-.329,1.075,1.075,0,0,0,.595-1q0-.886-1.3-1.317l-2.8-.929a5.744,5.744,0,0,1-2.229-1.3,2.8,2.8,0,0,1-.65-1.962,3.25,3.25,0,0,1,1.36-2.736,5.975,5.975,0,0,1,3.672-1.021,9.41,9.41,0,0,1,2.25.283,3.9,3.9,0,0,1,1.751.84,1.086,1.086,0,0,1,.321.574,1.07,1.07,0,0,1-.033.6,1.709,1.709,0,0,1-.291.5.789.789,0,0,1-.452.283.864.864,0,0,1-.523-.055,6.211,6.211,0,0,0-1.406-.595,5.974,5.974,0,0,0-1.5-.165,4.272,4.272,0,0,0-1.055.122,1.886,1.886,0,0,0-.81.418.93.93,0,0,0-.329.717,1.016,1.016,0,0,0,.452.866,5.149,5.149,0,0,0,1.33.62,2.982,2.982,0,0,0,.646.127,3.179,3.179,0,0,1,.654.127q.776.236,1.33.456a7.3,7.3,0,0,1,1.076.536,3.406,3.406,0,0,1,.84.688,2.887,2.887,0,0,1,.506.891,3.385,3.385,0,0,1,.19,1.169,3.379,3.379,0,0,1-1.359,2.832,5.9,5.9,0,0,1-3.681,1.043A7.905,7.905,0,0,1,399.705-431.742Z" transform="translate(-326.876 443.713)" fill="#fff"/>
      </g>
    </g>
    <g id="Grupo_100" data-name="Grupo 100" transform="translate(405.012 31)">
      <g id="Grupo_87" data-name="Grupo 87" transform="translate(86.469)">
        <g id="Grupo_86" data-name="Grupo 86">
          <path id="Trazado_126" data-name="Trazado 126" d="M251.073,76.167a4.7,4.7,0,0,1-.617,2.183,4.147,4.147,0,0,1-2.021,1.81q-.937-.006-1.036-2.251l.109-2.66-.025-.459a1.675,1.675,0,0,0,.545-.47,2.226,2.226,0,0,1,1.781-1.158,3.533,3.533,0,0,1,1.267,2.8Zm19.081-5.657q-.144-.488-2.088-.781l-.307,0-.458.54-.527-.074a3.473,3.473,0,0,0-.887,1.108,22.5,22.5,0,0,1-1.254,2.959h-.117l-.23-.574q-1.055-3.574-3.909-3.594a3.461,3.461,0,0,0-.869.565,11.546,11.546,0,0,1-2.051,1.992l-.788-.3c-.079,0-.167.115-.267.346q-.969.3-.97.453l0,.306q-.009,1.031-.638,1.026l-.03.4a5.535,5.535,0,0,0-.259-1.109q-1.128-3.491-4.13-3.514h-.058a7.009,7.009,0,0,0-3.342.547,8.764,8.764,0,0,1-1.079,1.246,4.555,4.555,0,0,0-1.455.7,13.658,13.658,0,0,0-.513,1.855q-.6-2.981-8.172-5.262-6.674-1.985-9.683-2.968a5.054,5.054,0,0,1-2.753-1.859,11.976,11.976,0,0,1,1.3-1.663q2.7-2.21,4.85-2.194l4.742.146a4.13,4.13,0,0,0,1.231-.1q1.613-.253,1.617-.88a1.554,1.554,0,0,0-.141-.573q-1.522-1.947-6.192-1.981l-.658,0a12.53,12.53,0,0,0-5.736,1.351q-5.484,2.843-5.508,5.937l0,.362q-.024,3.051,7.029,5.3a80.063,80.063,0,0,1,10.647,3.24,8.6,8.6,0,0,1,3.071,2.252,8.342,8.342,0,0,1-1.357,1.216,19.4,19.4,0,0,1-10.123,2.615,16.917,16.917,0,0,1-4.4-.631l.389-2.8a2.46,2.46,0,0,0-.183-1,4.267,4.267,0,0,0-1.834.445q-2.646,1.472-2.665,3.743a3.259,3.259,0,0,0,.354,1.465q1.386,2.3,6.965,2.336a28.739,28.739,0,0,0,5.671-.614q9.632-2.216,11.259-5.556-.014.3-.017.609v.292a6.974,6.974,0,0,0,.276,2.022q1.271,3.8,4.391,3.823h.205a6.433,6.433,0,0,0,3.1-.966,7.615,7.615,0,0,0,3.184-5.556l.053,1.958a6.747,6.747,0,0,1-.383,2.156l.363.406,0,.251-.075.292a2.833,2.833,0,0,0,1.532.582q1.654.012,2.694-3.658a11.579,11.579,0,0,1,1.745-4.014q.234,0,.573,3.459.316,4.364,2.542,4.379l.512,0q1.229.009,3.983-7.327h.058a19.625,19.625,0,0,1,1.619,4.345,3.751,3.751,0,0,0,3.783,3c.136,0,.2-.1.207-.291q.722-.565.724-.789a56.4,56.4,0,0,1-2.28-5.979,27.024,27.024,0,0,0-2.27-5.409" transform="translate(-218.82 -57.261)" fill="#fff"/>
          <path id="Trazado_127" data-name="Trazado 127" d="M349.422,90.511a4.7,4.7,0,0,1-.617,2.183,4.151,4.151,0,0,1-2.02,1.81q-.937-.006-1.036-2.251l.109-2.66-.025-.46a1.645,1.645,0,0,0,.545-.47,2.224,2.224,0,0,1,1.781-1.157,3.528,3.528,0,0,1,1.265,2.8Zm17.291.321a33.119,33.119,0,0,0-6.368-1.927q-2.513-.7-3.134-1.682,0-.459,4.24-1.056a2.749,2.749,0,0,0,1.807-.921,4.262,4.262,0,0,0-.385-1.228q-.225-1.005-2.363-1.021l-.483,0a8.688,8.688,0,0,0-3.418.8q-3.7,1.508-3.752,4.331a.054.054,0,0,0,0-.011q-1.128-3.492-4.13-3.513h-.058a7.012,7.012,0,0,0-3.343.547,8.738,8.738,0,0,1-1.079,1.246,4.539,4.539,0,0,0-1.455.7,14.486,14.486,0,0,0-.814,4.787l0,.292a6.981,6.981,0,0,0,.276,2.022q1.272,3.8,4.391,3.823l.205,0a6.454,6.454,0,0,0,3.1-.967,7.662,7.662,0,0,0,3.228-6.372l.005-.515a6.7,6.7,0,0,0-.064-.961q.806,1.292,4.154,2.245a29.182,29.182,0,0,1,6.047,1.9V93.4a4.048,4.048,0,0,1-2.775.927,12.8,12.8,0,0,1-5.113-1.43,2.445,2.445,0,0,0-1.216,1.928l0,.278a1.791,1.791,0,0,0,.56,1.356q-.006.849,5.422,1.237a17.667,17.667,0,0,0,2.945-.243q5.367-.95,5.389-3.806a3.164,3.164,0,0,0-1.807-2.813" transform="translate(-286.392 -71.381)" fill="#fff"/>
        </g>
        <path id="Trazado_128" data-name="Trazado 128" d="M297.525,121.3c-10-3.032-21.389-4.444-35.827-4.444-3.618,0-7.58.088-12.11.267a264.492,264.492,0,0,0-28.488,2.524.821.821,0,0,0-.8.85,1.491,1.491,0,0,0,1.408,1.149,1.081,1.081,0,0,0,.154-.011c7.677-1.141,16.017-1.909,26.247-2.416,5.492-.273,10.052-.4,14.349-.4L296.1,122.31c.4.114.8.218,1.195.338a1.012,1.012,0,0,0,.288.048h0a.281.281,0,0,0,.31-.2l.565.059A1.216,1.216,0,0,0,297.525,121.3Z" transform="translate(-219.628 -89.96)" fill="#fff"/>
      </g>
      <g id="Grupo_91" data-name="Grupo 91" transform="translate(85.478 48.072)">
        <path id="Trazado_129" data-name="Trazado 129" d="M221.653,166.2V170.3h-.816v-2.231c0-.177.005-.38.016-.605l.015-.306.016-.3h-.026l-.1.285-.094.285q-.132.384-.2.567l-.945,2.309h-.744l-.954-2.291q-.079-.188-.208-.566l-.1-.286-.1-.282h-.026l.016.3.015.3q.02.348.019.6V170.3h-.816V166.2h1.33l.769,1.9c.053.132.122.321.208.567l.095.284.1.282h.028l.092-.282.094-.281c.078-.239.146-.426.2-.564l.756-1.9Z" transform="translate(-216.624 -165.109)" fill="#fff"/>
        <path id="Trazado_130" data-name="Trazado 130" d="M233.072,166.2h.816v2.723a1.415,1.415,0,0,1-.345,1.131,2.454,2.454,0,0,1-1.41.276,2.743,2.743,0,0,1-1.475-.262,1.33,1.33,0,0,1-.349-1.1V166.2h.816v2.768c0,.3.055.493.17.574a2.717,2.717,0,0,0,1.612,0q.165-.122.165-.6Z" transform="translate(-224.133 -165.109)" fill="#fff"/>
        <path id="Trazado_131" data-name="Trazado 131" d="M243.227,168.792h.819v.141q0,.856-.328,1.105a2.708,2.708,0,0,1-1.449.25q-1.274,0-1.567-.4a4.478,4.478,0,0,1-.293-2.117,1.685,1.685,0,0,1,.4-1.333,2.9,2.9,0,0,1,1.661-.32,2.012,2.012,0,0,1,1.229.263,1.342,1.342,0,0,1,.309,1.042l0,.092h-.82v-.1c0-.268-.052-.439-.159-.514a1.47,1.47,0,0,0-.727-.112q-.759,0-.912.177a2.042,2.042,0,0,0-.153,1.049,3.807,3.807,0,0,0,.137,1.392c.091.143.387.216.887.216a1.674,1.674,0,0,0,.79-.12c.12-.08.181-.257.181-.528Z" transform="translate(-229.675 -165.065)" fill="#fff"/>
        <path id="Trazado_132" data-name="Trazado 132" d="M253.3,166.2v1.67h-2.017V166.2h-.815V170.3h.815v-1.769H253.3V170.3h.816V166.2Z" transform="translate(-235.192 -165.109)" fill="#fff"/>
        <g id="Grupo_88" data-name="Grupo 88" transform="translate(19.86 1.058)">
          <path id="Trazado_133" data-name="Trazado 133" d="M262.557,166.789c-.548,0-.869.067-.961.2a3.689,3.689,0,0,0-.139,1.392,1.991,1.991,0,0,0,.163,1.061q.162.18.957.18.759,0,.91-.2a2.768,2.768,0,0,0,.151-1.228,2.809,2.809,0,0,0-.143-1.216q-.143-.188-.937-.188m.063-.665a2.128,2.128,0,0,1,1.51.37,2.7,2.7,0,0,1,.337,1.657,2.941,2.941,0,0,1-.339,1.772,2.409,2.409,0,0,1-1.641.366,2.189,2.189,0,0,1-1.515-.361,2.483,2.483,0,0,1-.343-1.591,3.147,3.147,0,0,1,.337-1.839q.337-.374,1.654-.374" transform="translate(-260.629 -166.124)" fill="#fff"/>
          <path id="Trazado_134" data-name="Trazado 134" d="M280.675,166.2V170.3h-.816v-2.231c0-.177.005-.38.016-.605l.015-.306.016-.3h-.026l-.1.285-.094.285q-.132.384-.2.567l-.946,2.309h-.744l-.954-2.291q-.079-.188-.208-.566l-.1-.286-.1-.282h-.026l.016.3.015.3q.02.348.019.6V170.3h-.816V166.2h1.33l.769,1.9c.053.132.122.321.208.567l.095.284.1.282h.028l.092-.282.094-.281q.116-.358.2-.564l.756-1.9Z" transform="translate(-268.869 -166.167)" fill="#fff"/>
        </g>
        <path id="Trazado_135" data-name="Trazado 135" d="M290.525,165.476l.744,2.132H289.8Zm-.624-.6-1.43,4.094h.863l.267-.786h1.857l.273.786h.848l-1.453-4.094Zm.183-.71.082.309,1.21-.2-.145-.5Z" transform="translate(-256.046 -163.779)" fill="#fff"/>
        <g id="Grupo_89" data-name="Grupo 89" transform="translate(37.117 1.058)">
          <path id="Trazado_136" data-name="Trazado 136" d="M302.235,167.353h-.8a.675.675,0,0,1-.007-.084c-.019-.23-.073-.374-.161-.433a1.345,1.345,0,0,0-.624-.088,1.794,1.794,0,0,0-.758.1.453.453,0,0,0-.178.429c0,.258.048.412.145.464a3.469,3.469,0,0,0,.958.12,2.612,2.612,0,0,1,1.243.261,1.052,1.052,0,0,1,.282.872q0,.816-.331,1.054a2.857,2.857,0,0,1-1.459.238,2.6,2.6,0,0,1-1.347-.233,1.1,1.1,0,0,1-.332-.948l0-.15h.793l0,.087q0,.429.158.524a2.2,2.2,0,0,0,.861.1,1.387,1.387,0,0,0,.7-.11q.151-.112.151-.514a.508.508,0,0,0-.115-.394.91.91,0,0,0-.5-.119l-.45-.027a2.779,2.779,0,0,1-1.305-.27,1.113,1.113,0,0,1-.283-.914,1.1,1.1,0,0,1,.342-.955,4.031,4.031,0,0,1,2.674-.02.948.948,0,0,1,.337.855Z" transform="translate(-298.867 -166.124)" fill="#fff"/>
          <path id="Trazado_137" data-name="Trazado 137" d="M314.41,168.8l.341-.468.888.573c.017-.148.025-.247.025-.3v-.921c0-.381-.065-.626-.2-.732a1.567,1.567,0,0,0-.885-.161q-.823,0-.961.2a3.669,3.669,0,0,0-.139,1.392,1.914,1.914,0,0,0,.169,1.07q.169.172,1.054.172a1.189,1.189,0,0,0,.705-.183Zm2.449.909-.337.468-.41-.27a2.229,2.229,0,0,1-1.525.386,2.383,2.383,0,0,1-1.582-.352,2.439,2.439,0,0,1-.349-1.6,3.2,3.2,0,0,1,.332-1.832q.332-.384,1.586-.384a2.307,2.307,0,0,1,1.578.362,2.662,2.662,0,0,1,.342,1.665,6.047,6.047,0,0,1-.085,1.26Z" transform="translate(-306.432 -166.124)" fill="#fff"/>
          <path id="Trazado_138" data-name="Trazado 138" d="M326.3,166.2h.816v2.723a1.418,1.418,0,0,1-.345,1.131,2.456,2.456,0,0,1-1.41.276,2.744,2.744,0,0,1-1.475-.262,1.33,1.33,0,0,1-.349-1.1V166.2h.816v2.768c0,.3.056.493.17.574a2.715,2.715,0,0,0,1.612,0q.166-.122.166-.6Z" transform="translate(-312.405 -166.167)" fill="#fff"/>
        </g>
        <path id="Trazado_139" data-name="Trazado 139" d="M333.809,166.2V170.3h2.962v-.653h-2.146v-1.157h2.016v-.573h-2.016v-1.056h2.126V166.2Z" transform="translate(-280.922 -165.109)" fill="#fff"/>
        <g id="Grupo_90" data-name="Grupo 90" transform="translate(58.684 1.058)">
          <path id="Trazado_140" data-name="Trazado 140" d="M349.471,168.792h.82v.141q0,.856-.328,1.105a2.709,2.709,0,0,1-1.449.25q-1.274,0-1.566-.4a4.477,4.477,0,0,1-.293-2.117,1.685,1.685,0,0,1,.4-1.333,2.9,2.9,0,0,1,1.661-.32,2.011,2.011,0,0,1,1.229.263,1.344,1.344,0,0,1,.309,1.042l0,.092h-.82v-.1c0-.268-.052-.439-.159-.514a1.467,1.467,0,0,0-.726-.112q-.759,0-.912.177a2.043,2.043,0,0,0-.153,1.049,3.8,3.8,0,0,0,.137,1.392c.091.143.387.216.887.216a1.673,1.673,0,0,0,.79-.12c.12-.08.181-.257.181-.528Z" transform="translate(-346.654 -166.123)" fill="#fff"/>
          <path id="Trazado_141" data-name="Trazado 141" d="M358.182,166.789q-.822,0-.961.2a3.668,3.668,0,0,0-.139,1.392,1.991,1.991,0,0,0,.163,1.061q.162.18.957.18.759,0,.91-.2a2.766,2.766,0,0,0,.151-1.228,2.809,2.809,0,0,0-.143-1.216q-.143-.188-.937-.188m.063-.665a2.127,2.127,0,0,1,1.51.37,2.691,2.691,0,0,1,.337,1.657,2.944,2.944,0,0,1-.339,1.772,2.409,2.409,0,0,1-1.64.366,2.19,2.19,0,0,1-1.516-.361,2.48,2.48,0,0,1-.343-1.591,3.147,3.147,0,0,1,.337-1.839q.337-.374,1.654-.374" transform="translate(-351.921 -166.124)" fill="#fff"/>
          <path id="Trazado_142" data-name="Trazado 142" d="M367.654,169.643h.895l.287-.006a.9.9,0,0,0,.544-.111.612.612,0,0,0,.131-.467q0-.372-.138-.468a1.436,1.436,0,0,0-.676-.1h-1.043Zm0-1.721h1a1.186,1.186,0,0,0,.619-.1c.089-.068.134-.225.134-.471q0-.492-.586-.492h-1.166Zm-.816,2.375V166.2h2.114a1.638,1.638,0,0,1,1.014.227,1.08,1.08,0,0,1,.269.853.792.792,0,0,1-.633.895v.014q.737.108.737.975a1.133,1.133,0,0,1-.283.878,1.5,1.5,0,0,1-.989.252Z" transform="translate(-357.729 -166.167)" fill="#fff"/>
          <path id="Trazado_143" data-name="Trazado 143" d="M377.581,168.264h1.172a.786.786,0,0,0,.556-.143.846.846,0,0,0,.137-.571.908.908,0,0,0-.118-.565.735.735,0,0,0-.518-.127h-1.229Zm-.816,2.033V166.2h2.121a1.694,1.694,0,0,1,1.09.261,1.213,1.213,0,0,1,.3.945,1.673,1.673,0,0,1-.15.849.9.9,0,0,1-.612.314v.027a.693.693,0,0,1,.715.794v.9h-.816v-.747a.569.569,0,0,0-.655-.633h-1.175v1.38Z" transform="translate(-363.176 -166.167)" fill="#fff"/>
        </g>
        <path id="Trazado_144" data-name="Trazado 144" d="M386.651,166.2V170.3h2.962v-.653h-2.146v-1.157h2.016v-.573h-2.016v-1.056h2.127V166.2Z" transform="translate(-309.917 -165.109)" fill="#fff"/>
      </g>
      <g id="Grupo_93" data-name="Grupo 93" transform="translate(0.174 7.057)">
        <g id="Grupo_92" data-name="Grupo 92" transform="translate(0 1.72)">
          <path id="Trazado_145" data-name="Trazado 145" d="M68.191,108.381a.047.047,0,0,0,0,.011,1.425,1.425,0,0,1-.221.429c-.072.1-.149.2-.227.3s-.169.212-.275.335c-.342.426-.5.646-.977.719A1.61,1.61,0,0,1,66,110.2l-10.765-.09h0l.367-.331,2.363-2.165s8.2.09,8.335.09c.069,0,.473-.024.89,0,.589.017,1.166.129,1.01.678m.473-2.754-10.1-.079-6.192,5.317,13.824.107a1.913,1.913,0,0,0,1.951-1.034l1.64-2.657c.753-1.192-.052-1.708-1.121-1.655" transform="translate(-41.195 -92.534)" fill="#fff"/>
          <path id="Trazado_146" data-name="Trazado 146" d="M36.2,106.98l.847-.713,20.787.161c1.134-.051,1.395-.23,3-2.735.656-1.076,1.417-2.536,2.067-3.491.425-.627.272-1.526-1.091-1.418L51.287,98.7,55,95.672l10.135.079c2.04-.075.339,2.28-.579,3.653-1.441,2.267-3.547,5.905-4,6.444a3,3,0,0,1-2.795,1.3Z" transform="translate(-32.322 -87.114)" fill="#fff"/>
          <path id="Trazado_147" data-name="Trazado 147" d="M31.581,103.358l.848-.865,23.053.209a4.008,4.008,0,0,0,3.643-2.311c.6-1.036,4.051-6.67,5.706-9.19,1.438-1.908-.048-2.34-1.474-2.29L53.9,88.839l3.65-2.91,8.548.065c3.3-.154,1.65,2.216,1.469,2.588l-8.65,13.486a4.366,4.366,0,0,1-3.7,1.471Z" transform="translate(-29.788 -81.768)" fill="#fff"/>
          <path id="Trazado_148" data-name="Trazado 148" d="M52.027,99.311c4.5.034,4.195-.342,5.189-1.157l.163-.179L67.54,81.683c.822-1.67-.34-2.071-1.345-2.048l-9.486-.073,3.422-2.852,7.9.061c1.425.1,2.3.754,2.254,1.7-.075,1.377-1.022,2.479-2.2,4.389L58.448,97.923c-1.149,2.088-2.381,2.2-4.971,2.239l-25.869-.2.816-.834Z" transform="translate(-27.608 -76.71)" fill="#fff"/>
        </g>
        <path id="Trazado_149" data-name="Trazado 149" d="M111.421,79.18l1.934,1.065L100.372,101.4l-1.935-1.034Z" transform="translate(-66.472 -76.345)" fill="#fff"/>
        <path id="Trazado_150" data-name="Trazado 150" d="M106.309,104.04l12.458-20.292c2.188,1.817,3.212,3.2,6.284,8.083,0,0,.093-3.775.1-4.436,1.832,1.724,11.879,11.229,12.992,11.854.757.425,5.215,3.935,9.294,4.028,1.533.035,4.533.035,4.533.035l-.009,1.139Z" transform="translate(-70.791 -78.852)" fill="#fff"/>
        <path id="Trazado_151" data-name="Trazado 151" d="M110.5,72.943c3.218.006,6.81.207,8.4,1.864a14.566,14.566,0,0,1,4.662,8.849c-3.452-6.081-7.309-9.769-13.2-9.935-.744-.021-3.043-.023-6.087-.046l.524-.776s4.637.042,5.7.044" transform="translate(-69.677 -72.899)" fill="#fff"/>
      </g>
      <g id="Grupo_96" data-name="Grupo 96" transform="translate(0 35.046)">
        <path id="Trazado_152" data-name="Trazado 152" d="M38.563,142.019v.332a1.11,1.11,0,0,1-.759,1.2,7.437,7.437,0,0,1-2.314.212,7.079,7.079,0,0,1-2.143-.23,1.231,1.231,0,0,1-.838-.75,4.063,4.063,0,0,1-.143-1.353v-1.761a3.113,3.113,0,0,1,.176-1.267,1.253,1.253,0,0,1,.872-.672,7.728,7.728,0,0,1,2.076-.2,8.509,8.509,0,0,1,2.095.162,1.143,1.143,0,0,1,.954.92v.435h5.141v-.435a3.392,3.392,0,0,0-.882-2.462,4.471,4.471,0,0,0-2.513-1.03,30.009,30.009,0,0,0-4.245-.206,30.091,30.091,0,0,0-4.727.278,5.874,5.874,0,0,0-3.023,1.227,3.517,3.517,0,0,0-1.065,2.766v2.919a3.61,3.61,0,0,0,1.154,2.936,5.929,5.929,0,0,0,3.112,1.142,35.846,35.846,0,0,0,4.55.19q1.64.029,3.151-.1a8.119,8.119,0,0,0,2.794-.73,2.853,2.853,0,0,0,1.5-1.46,4.571,4.571,0,0,0,.226-1.742v-.332Z" transform="translate(-27.223 -134.917)" fill="#fff"/>
        <path id="Trazado_153" data-name="Trazado 153" d="M76.014,146.382a26.671,26.671,0,0,0,4.5-.3,6.368,6.368,0,0,0,3.046-1.218,3.241,3.241,0,0,0,1.119-2.617v-3.188a3.233,3.233,0,0,0-1.119-2.615,6.392,6.392,0,0,0-3.046-1.22,26.876,26.876,0,0,0-4.5-.3,26.869,26.869,0,0,0-4.5.3,6.392,6.392,0,0,0-3.046,1.22,3.23,3.23,0,0,0-1.119,2.615v3.188a3.239,3.239,0,0,0,1.119,2.617,6.368,6.368,0,0,0,3.046,1.218,26.665,26.665,0,0,0,4.5.3m0-2.615a12.89,12.89,0,0,1-2.051-.107,1.742,1.742,0,0,1-1.1-.515,1.976,1.976,0,0,1-.369-1.229v-2.543a1.943,1.943,0,0,1,.369-1.217,1.739,1.739,0,0,1,1.1-.513,13.46,13.46,0,0,1,2.051-.107,13.757,13.757,0,0,1,2.068.107,1.765,1.765,0,0,1,1.119.513,1.8,1.8,0,0,1,.336,1.217v2.543a1.83,1.83,0,0,1-.336,1.229,1.769,1.769,0,0,1-1.119.515,13.171,13.171,0,0,1-2.068.107" transform="translate(-49.24 -134.919)" fill="#fff"/>
        <path id="Trazado_154" data-name="Trazado 154" d="M115.831,135.125h-4.992V146.4h12.81v-2.615h-7.818Z" transform="translate(-73.102 -135.03)" fill="#fff"/>
        <path id="Trazado_155" data-name="Trazado 155" d="M148.179,135.125h-4.992V146.4H156v-2.615h-7.818Z" transform="translate(-90.851 -135.03)" fill="#fff"/>
        <path id="Trazado_156" data-name="Trazado 156" d="M184.5,144.462l.975,1.939h5.094l-5.693-11.279h-7.592L171.664,146.4h5.193l.924-1.939Zm-1-2.195h-4.645l2.273-4.889h.049Z" transform="translate(-106.477 -135.029)" fill="#fff"/>
        <path id="Trazado_157" data-name="Trazado 157" d="M232.876,135.125h-4.992v4.242h-6.522v-4.242H216.37V146.4h4.992v-4.422h6.522V146.4h4.992Z" transform="translate(-131.007 -135.03)" fill="#fff"/>
        <g id="Grupo_94" data-name="Grupo 94" transform="translate(105 0.095)">
          <path id="Trazado_158" data-name="Trazado 158" d="M271.024,135.125v7.325q.02.956-.628,1.21a6.415,6.415,0,0,1-2.222.218c-.7.008-1.3-.01-1.788-.052a2.236,2.236,0,0,1-1.121-.339,1.04,1.04,0,0,1-.389-.9v-7.459h-4.992v7.52a3.749,3.749,0,0,0,.484,2.2A3.554,3.554,0,0,0,262.7,146.1a26.88,26.88,0,0,0,5.477.4,23.377,23.377,0,0,0,4.475-.33,4.773,4.773,0,0,0,2.555-1.184,3.191,3.191,0,0,0,.812-2.334v-7.52Z" transform="translate(-259.88 -135.125)" fill="#fff"/>
        </g>
        <path id="Trazado_159" data-name="Trazado 159" d="M311.217,144.462l.974,1.939h5.094l-5.694-11.279H304L298.382,146.4h5.193l.925-1.939Zm-1-2.195h-4.644l2.273-4.889h.049Z" transform="translate(-176.006 -135.029)" fill="#fff"/>
        <g id="Grupo_95" data-name="Grupo 95" transform="translate(141.878 0)">
          <path id="Trazado_160" data-name="Trazado 160" d="M348.661,139.342a5.791,5.791,0,0,1-1.522-.181.757.757,0,0,1-.528-.813.73.73,0,0,1,.158-.531,1.406,1.406,0,0,1,.808-.323,12.594,12.594,0,0,1,1.958-.11,8.3,8.3,0,0,1,2.149.146.9.9,0,0,1,.651,1.013h4.792v-.467a2.492,2.492,0,0,0-1.059-2.2,5.948,5.948,0,0,0-2.744-.828,37.1,37.1,0,0,0-3.789-.127,35.592,35.592,0,0,0-4.227.173,5.414,5.414,0,0,0-2.725.939,3.359,3.359,0,0,0-.094,4.61,4.826,4.826,0,0,0,2.5.882c1.088.124,2.407.209,3.95.254l1.1.042a9.7,9.7,0,0,1,2.193.2q.487.16.43.859a.8.8,0,0,1-.681.875,10.289,10.289,0,0,1-2.442.164,8.376,8.376,0,0,1-2.493-.206.979.979,0,0,1-.656-1.088h-4.792a3.224,3.224,0,0,0,1,2.618,5.145,5.145,0,0,0,2.763.987,35.418,35.418,0,0,0,4.18.153,28.274,28.274,0,0,0,4.744-.314,6.064,6.064,0,0,0,2.4-.837,2.021,2.021,0,0,0,.859-1.182,5.266,5.266,0,0,0,.109-1.366,2.752,2.752,0,0,0-.561-1.938,3.6,3.6,0,0,0-2.1-.934,31.807,31.807,0,0,0-4.254-.375Z" transform="translate(-341.594 -134.915)" fill="#fff"/>
        </g>
        <rect id="Rectángulo_51" data-name="Rectángulo 51" width="4.992" height="11.278" transform="translate(160.359 0.094)" fill="#fff"/>
      </g>
    </g>
  </g>
</svg>
